<svg width="653" height="653" viewBox="0 0 653 653" fill="none" xmlns="http://www.w3.org/2000/svg">
<path opacity="0.7" d="M88.7161 218.22C88.7161 218.22 52.3048 312.252 103.474 406.937C154.643 501.622 260.037 551.641 344.392 594.413C428.746 637.184 516.34 616.354 557.962 546.3C599.584 476.246 542.499 426.239 542.42 326.343C542.342 226.447 557.374 200.001 503.24 115.607C449.107 31.2134 316.404 12.5245 216.051 75.1211C115.698 137.718 88.7161 218.22 88.7161 218.22Z" fill="white"/>
<path d="M250.755 589.319C286.278 611.326 351.669 582.594 376.327 556.212C456.332 470.565 597.981 325.769 567.225 178.204C554.165 115.516 491.033 97.3884 465.722 93.8753C404.954 85.4124 343.089 94.3846 283.131 107.353C220.443 120.909 154.659 140.578 106.821 185.478C88.8108 202.43 72.7209 222.412 64.3625 246.037C55.8735 270.042 54.2932 296.371 58.6161 321.38C65.6163 361.736 86.6559 398.435 112.254 430.458C137.851 462.481 168.085 490.299 196.791 519.501C215.493 538.555 220.834 570.722 250.755 589.319Z" fill="#7E57C2"/>
<path opacity="0.9" d="M250.755 589.319C286.278 611.326 351.669 582.594 376.327 556.212C456.332 470.565 597.981 325.769 567.225 178.204C554.165 115.516 491.033 97.3884 465.722 93.8753C404.954 85.4124 343.089 94.3846 283.131 107.353C220.443 120.909 154.659 140.578 106.821 185.478C88.8108 202.43 72.7209 222.412 64.3625 246.037C55.8735 270.042 54.2932 296.371 58.6161 321.38C65.6163 361.736 86.6559 398.435 112.254 430.458C137.851 462.481 168.085 490.299 196.791 519.501C215.493 538.555 220.834 570.722 250.755 589.319Z" fill="white"/>
<path d="M94.465 197.637H71.4141C71.4141 197.637 73.7126 191.93 91.644 193.823C91.644 193.823 100.577 183.598 113.598 183.598C113.848 181.178 114.901 178.912 116.588 177.161C118.276 175.409 120.501 174.273 122.91 173.933C131.804 172.222 133.527 180.15 133.527 180.15C135.956 179.1 138.574 178.558 141.22 178.558C143.866 178.558 146.484 179.1 148.912 180.15C157.728 183.624 155.938 193.797 155.938 193.797C155.938 193.797 181.379 192.962 185.754 197.637H172.694" stroke="#263238" stroke-linecap="round" stroke-linejoin="round"/>
<path d="M98.4766 197.637H102.329" stroke="#263238" stroke-linecap="round" stroke-linejoin="round"/>
<path d="M123.562 197.572H158.785" stroke="#263238" stroke-linecap="round" stroke-linejoin="round"/>
<path d="M290.937 326.069H257.281C257.281 326.069 259.253 321.198 274.547 322.817C274.547 322.817 282.174 314.093 293.275 314.093C293.492 312.028 294.393 310.095 295.833 308.6C297.274 307.105 299.173 306.133 301.228 305.839C308.816 304.389 310.292 311.155 310.292 311.155C312.363 310.258 314.597 309.795 316.854 309.795C319.112 309.795 321.345 310.258 323.417 311.155C330.94 314.119 329.425 322.804 329.425 322.804C329.425 322.804 351.13 322.086 354.852 326.069H346.703" stroke="#263238" stroke-linecap="round" stroke-linejoin="round"/>
<path d="M298.891 325.821H303.71" stroke="#263238" stroke-linecap="round" stroke-linejoin="round"/>
<path d="M288.549 98.9556H254.828C254.828 98.9556 256.8 94.0842 272.093 95.7167C272.093 95.7167 279.707 86.9796 290.821 86.9796C291.037 84.9154 291.938 82.9827 293.379 81.4894C294.82 79.996 296.72 79.0277 298.775 78.7387C306.363 77.276 307.839 84.0411 307.839 84.0411C309.901 83.1536 312.123 82.6958 314.369 82.6958C316.614 82.6958 318.836 83.1536 320.899 84.0411C328.421 87.0057 326.893 95.6906 326.893 95.6906C326.893 95.6906 348.612 94.9723 352.334 98.9556H344.185" stroke="#263238" stroke-linecap="round" stroke-linejoin="round"/>
<path d="M296.492 98.7075H301.324" stroke="#263238" stroke-linecap="round" stroke-linejoin="round"/>
<path d="M182.749 387.621H98.6953C104.964 380.921 141.506 382.109 141.506 382.109C141.506 382.109 138.894 367.508 151.614 362.519C164.335 357.531 173.712 362.519 173.712 362.519C173.712 362.519 176.193 351.131 188.966 353.586C201.739 356.042 202.353 367.469 202.353 367.469C221.068 367.469 233.892 382.175 233.892 382.175C259.647 379.432 262.964 387.634 262.964 387.634H253.574" stroke="#263238" stroke-linecap="round" stroke-linejoin="round"/>
<path d="M246.534 387.621H242.969" stroke="#263238" stroke-linecap="round" stroke-linejoin="round"/>
<path d="M197.297 387.621H209.573" stroke="#263238" stroke-linecap="round" stroke-linejoin="round"/>
<path d="M470.789 185.857H370.227C370.227 185.857 374.393 175.579 406.677 179.013C406.677 179.013 422.767 160.573 446.21 160.573C446.21 160.573 446.993 146.207 463.005 143.164C479.016 140.121 482.125 154.369 482.125 154.369C482.125 154.369 493.957 148.1 509.838 154.369C525.719 160.638 522.506 178.961 522.506 178.961C522.506 178.961 568.334 177.459 576.196 185.857H552.962" stroke="#263238" stroke-linecap="round" stroke-linejoin="round"/>
<path d="M480.398 185.857H489.749" stroke="#263238" stroke-linecap="round" stroke-linejoin="round"/>
<path d="M498.888 413.245H579.089C579.089 413.245 575.772 405.056 550.017 407.785C550.017 407.785 537.193 393.08 518.491 393.08C518.491 393.08 517.864 381.652 505.091 379.197C492.318 376.742 489.837 388.13 489.837 388.13C489.837 388.13 480.408 383.128 467.739 388.13C455.071 393.132 457.644 407.72 457.644 407.72C457.644 407.72 421.076 406.519 414.82 413.218H439.086" stroke="#263238" stroke-linecap="round" stroke-linejoin="round"/>
<path d="M445.641 413.245H457.473" stroke="#263238" stroke-linecap="round" stroke-linejoin="round"/>
<path d="M334.141 444.419V381.274H344.549V406.728H354.788V444.797" stroke="#263238" stroke-linecap="round" stroke-linejoin="round"/>
<path d="M374.875 406.127V346.965H395.693V321.315H435.643V330.418H445.647V390.651" stroke="#263238" stroke-linecap="round" stroke-linejoin="round"/>
<path d="M489.75 367.757V308.582H503.15V281.783H508.426V235.72H512.801V257.883L523.549 268.631V295.456H535.839V354.226H547.018V370.421" stroke="#263238" stroke-linecap="round" stroke-linejoin="round"/>
<path d="M451.562 359.137H461.828V294.829H470.082V202.365H473.203V264.426H480.399V329.112H485.518" stroke="#263238" stroke-linecap="round" stroke-linejoin="round"/>
<path d="M370.221 370.421H361.562V351.301H356.952V370.421H350.5V399.101" stroke="#263238" stroke-linecap="round" stroke-linejoin="round"/>
<path d="M386.367 340.422V295.456H400.407V257.883H405.265V295.456H414.838V315.138" stroke="#263238" stroke-linecap="round" stroke-linejoin="round"/>
<path d="M400.602 346.965H422.947V397.246" stroke="#263238" stroke-linecap="round" stroke-linejoin="round"/>
<path d="M391.042 441.624V411.756H365.602V474.914" stroke="#263238" stroke-linecap="round" stroke-linejoin="round"/>
<path d="M344.547 458.132V449.656H318.531V517.829H311.648" stroke="#263238" stroke-linecap="round" stroke-linejoin="round"/>
<path d="M508.422 328.446H526.001" stroke="#263238" stroke-linecap="round" stroke-linejoin="round"/>
<path d="M508.422 337.719H526.001" stroke="#263238" stroke-linecap="round" stroke-linejoin="round"/>
<path d="M508.422 348.036H524.655" stroke="#263238" stroke-linecap="round" stroke-linejoin="round"/>
<path d="M429.087 326.069H405.266" stroke="#263238" stroke-linecap="round" stroke-linejoin="round"/>
<path d="M382.953 357.844H410.249" stroke="#263238" stroke-linecap="round" stroke-linejoin="round"/>
<path d="M382.953 363.721H410.249" stroke="#263238" stroke-linecap="round" stroke-linejoin="round"/>
<path d="M382.953 370.421H410.249" stroke="#263238" stroke-linecap="round" stroke-linejoin="round"/>
<path d="M468.539 307.158V367.757" stroke="#263238" stroke-linecap="round" stroke-linejoin="round"/>
<path d="M473.203 307.158V367.757" stroke="#263238" stroke-linecap="round" stroke-linejoin="round"/>
<path d="M159.828 216.443C159.828 216.443 173.619 203.775 183.166 205.29C184.76 205.538 176.571 221.132 176.571 221.132L159.828 216.443Z" fill="#7E57C2"/>
<mask id="mask0_115_2764" style="mask-type:luminance" maskUnits="userSpaceOnUse" x="159" y="205" width="25" height="17">
<path d="M159.828 216.443C159.828 216.443 173.619 203.775 183.166 205.29C184.76 205.538 176.571 221.132 176.571 221.132L159.828 216.443Z" fill="white"/>
</mask>
<g mask="url(#mask0_115_2764)">
<path opacity="0.5" d="M159.828 216.443C159.828 216.443 173.619 203.775 183.166 205.29C184.76 205.538 176.571 221.132 176.571 221.132L159.828 216.443Z" fill="black" fill-opacity="0.7"/>
</g>
<path d="M159.828 216.443C159.828 216.443 173.619 203.775 183.166 205.29C184.76 205.538 176.571 221.132 176.571 221.132L159.828 216.443Z" stroke="#263238" stroke-linecap="round" stroke-linejoin="round"/>
<path d="M286.163 271.452C286.163 271.452 286.685 312.957 288.226 319.879C289.634 325.017 291.72 329.945 294.43 334.532C294.43 334.532 289.937 425.469 291.4 429.674C292.862 433.879 299.079 462.664 299.079 462.664L306.314 572.877H303.702C303.702 572.877 293.855 468.854 293.855 465.772C293.855 462.69 286.11 435.577 286.11 435.577C286.11 435.577 285.079 345.385 286.11 340.239C287.142 335.093 280.051 321.498 280.051 321.498C280.051 321.498 280.142 279.784 277.961 275.644C278.013 275.631 282.545 271.922 286.163 271.452Z" fill="#757575" stroke="#263238" stroke-linecap="round" stroke-linejoin="round"/>
<path d="M183.17 319.879C183.17 319.879 169.144 343.452 173.624 364.283C173.624 364.283 168.282 435.825 166.205 440.475C164.129 445.124 150.194 465.68 145.91 495.614C143.32 513.728 139.391 531.626 134.156 549.16H152.806C152.806 549.16 180.65 461.044 186.357 456.434C192.064 451.824 202.565 421.002 209.983 393.498C209.983 393.498 219.987 442.29 223.97 451.602C227.953 460.913 224.623 487.804 230.317 504.991C235.946 521.969 235.541 549.212 235.541 549.212C235.541 549.212 254.935 554.018 254.752 549.212C253.446 515.961 260.172 487.177 251.853 457.583C247.935 443.766 255.771 363.016 241.483 319.944L183.17 319.879Z" fill="#BFBFBF"/>
<mask id="mask1_115_2764" style="mask-type:luminance" maskUnits="userSpaceOnUse" x="134" y="319" width="123" height="233">
<path d="M183.17 319.879C183.17 319.879 169.144 343.452 173.624 364.283C173.624 364.283 168.282 435.825 166.205 440.475C164.129 445.124 150.194 465.68 145.91 495.614C143.32 513.728 139.391 531.626 134.156 549.16H152.806C152.806 549.16 180.65 461.044 186.357 456.434C192.064 451.824 202.565 421.002 209.983 393.498C209.983 393.498 219.987 442.29 223.97 451.602C227.953 460.913 224.623 487.804 230.317 504.991C235.946 521.969 235.541 549.212 235.541 549.212C235.541 549.212 254.935 554.018 254.752 549.212C253.446 515.961 260.172 487.177 251.853 457.583C247.935 443.766 255.771 363.016 241.483 319.944L183.17 319.879Z" fill="white"/>
</mask>
<g mask="url(#mask1_115_2764)">
<path opacity="0.3" d="M209.58 387.621C209.58 388.561 209.724 390.938 209.894 393.89C202.476 421.316 192.054 451.745 186.386 456.369C180.718 460.992 152.834 549.095 152.834 549.095H134.211C139.446 531.561 143.375 513.663 145.965 495.549C150.209 465.615 164.249 445.111 166.26 440.448C168.271 435.786 173.626 364.374 173.626 364.374C172.55 358.959 172.444 353.396 173.313 347.944C174.305 355.036 178.537 363.838 192.903 366.111C192.025 363.38 191.775 360.487 192.173 357.646C192.571 354.805 193.606 352.092 195.201 349.708C195.201 349.708 192.419 364.374 204.199 371.244C204.722 371.544 204.552 373.62 204.552 373.62C204.552 373.62 209.528 384.212 209.58 387.621Z" fill="black" fill-opacity="0.7"/>
<path opacity="0.3" d="M243.34 325.847C238.573 328.733 228.243 332.103 206.25 331.215C202.63 334.189 199.596 337.812 197.304 341.898L195.201 340.226C195.201 340.226 185.132 345.959 174.188 343.151C176.057 335.001 179.083 327.159 183.173 319.865H241.616C242.204 321.785 242.792 323.783 243.34 325.847Z" fill="black" fill-opacity="0.7"/>
</g>
<path d="M183.17 319.879C183.17 319.879 169.144 343.452 173.624 364.283C173.624 364.283 168.282 435.825 166.205 440.475C164.129 445.124 150.194 465.68 145.91 495.614C143.32 513.728 139.391 531.626 134.156 549.16H152.806C152.806 549.16 180.65 461.044 186.357 456.434C192.064 451.824 202.565 421.002 209.983 393.498C209.983 393.498 219.987 442.29 223.97 451.602C227.953 460.914 224.623 487.804 230.317 504.991C235.946 521.969 235.541 549.212 235.541 549.212C235.541 549.212 254.935 554.018 254.752 549.212C253.446 515.961 260.172 487.177 251.853 457.583C247.935 443.766 255.771 363.016 241.483 319.944L183.17 319.879Z" stroke="#263238" stroke-linecap="round" stroke-linejoin="round"/>
<path d="M198.843 338.319C198.843 338.319 189.179 356.773 199.692 367.743C199.692 367.743 212.974 380.216 227.301 377.225" stroke="#263238" stroke-linecap="round" stroke-linejoin="round"/>
<path d="M210.005 393.433C210.005 393.433 208.699 383.376 206.204 379.067C203.71 374.757 204.545 373.581 204.545 373.581C204.545 373.581 193.235 377.068 185.922 374.404" stroke="#263238" stroke-linecap="round" stroke-linejoin="round"/>
<path d="M173.625 364.374C176.186 366.787 179.225 368.635 182.546 369.798C185.867 370.961 189.395 371.414 192.902 371.126" stroke="#263238" stroke-linecap="round" stroke-linejoin="round"/>
<path d="M198.844 210.514C199.889 210.083 252.011 206.191 254.61 200.824C252.052 195.966 250.129 190.8 248.89 185.452C245.635 173.11 240.399 161.378 233.387 150.712L246.447 148.322C254.283 170.342 272.776 189.879 272.45 210.305C272.45 210.305 244.24 229.49 215.521 232.612C207.254 233.487 198.844 210.514 198.844 210.514Z" fill="white" stroke="#263238" stroke-linecap="round" stroke-linejoin="round"/>
<path d="M216.214 196.004C214.446 195.759 212.646 196.103 211.094 196.984C205.792 200.197 206.758 209.783 206.758 209.783L183.172 205.29C188.318 197.807 186.998 180.633 186.998 180.633C209.096 159.92 214.424 178.896 215.73 189.775C216.135 192.844 216.201 195.26 216.214 196.004Z" fill="white" stroke="#263238" stroke-linecap="round" stroke-linejoin="round"/>
<path d="M216.208 196.004C214.44 195.759 212.641 196.103 211.089 196.984C209.199 193.826 208.01 190.298 207.602 186.64L215.764 189.788C216.13 192.844 216.195 195.26 216.208 196.004Z" fill="#263238"/>
<path d="M174.703 145.279C174.703 145.279 172.692 133.525 192.438 131.723C212.185 129.921 230.312 135.367 230.312 149.759C230.312 164.151 218.402 193.876 194.698 180.633C170.994 167.39 174.703 145.279 174.703 145.279Z" fill="#263238"/>
<path d="M186.17 182.265C184.133 179.653 178.752 170.276 177.89 166.698C172.562 144.692 184.603 143.098 193.562 138.645C210.605 130.195 226.108 147.33 224.776 162.584C223.443 177.838 230.64 176.036 230.313 178.138C230.039 179.915 225.468 181.717 225.468 181.717C225.394 183.024 225.434 184.335 225.585 185.635L224.462 186.667C223.874 189.566 222.542 196.879 221.589 197.115C219.682 197.689 208.986 193.954 207.223 189.997" fill="white"/>
<path d="M186.17 182.265C184.133 179.653 178.752 170.276 177.89 166.698C172.562 144.692 184.603 143.098 193.562 138.645C210.605 130.195 226.108 147.33 224.776 162.584C223.443 177.838 230.64 176.036 230.313 178.138C230.039 179.915 225.468 181.717 225.468 181.717C225.394 183.024 225.434 184.335 225.585 185.635L224.462 186.667C223.874 189.566 222.542 196.879 221.589 197.115C219.682 197.689 208.986 193.954 207.223 189.997" stroke="#263238" stroke-linecap="round" stroke-linejoin="round"/>
<path d="M223.133 169.023C222.976 170.133 222.349 170.955 221.735 170.877C221.122 170.799 220.73 169.819 220.873 168.709C221.017 167.599 221.657 166.776 222.284 166.868C222.911 166.959 223.329 167.912 223.133 169.023Z" fill="#263238"/>
<path d="M223.965 160.351C223.965 160.351 221.118 159.867 218.258 162.963" stroke="#263238" stroke-linecap="round" stroke-linejoin="round"/>
<path d="M218.102 138.723C210.266 132.729 166.541 126.564 173.802 161.121C172.836 165.405 175.774 172.627 185.556 184.342C185.556 184.342 190.297 180.633 195.378 183.819C195.378 183.819 198.447 174.312 203.736 172.157C204.879 171.656 205.893 170.901 206.701 169.95C220.701 166.45 222.477 153.168 222.294 148.518C223.13 147.251 224.632 143.66 218.102 138.723Z" fill="#263238"/>
<path d="M183.168 139.742C183.168 139.742 171.779 126.943 157.818 134.087C143.857 141.231 147.592 161.187 155.324 171.961C163.055 182.736 153.574 191.42 156.565 197.284C159.555 203.148 165.863 200.732 165.863 200.732C164.825 200.103 163.947 199.241 163.299 198.214C162.65 197.187 162.25 196.024 162.128 194.816C161.619 190.585 170.108 188.586 170.108 176.61C170.108 164.634 167.365 153.912 177.343 158.901C187.321 163.89 183.168 139.742 183.168 139.742Z" fill="#263238"/>
<path d="M224.474 186.627C224.474 186.627 220.112 186.849 218.258 185.125" stroke="#263238" stroke-linecap="round" stroke-linejoin="round"/>
<g opacity="0.2">
<path d="M183.168 139.742C183.168 139.742 189.959 148.414 181.797 155.597" stroke="white" stroke-linecap="round" stroke-linejoin="round"/>
<path d="M218.104 138.723C218.104 138.723 228.552 150.125 207.656 162.897" stroke="white" stroke-linecap="round" stroke-linejoin="round"/>
<path d="M214.187 136.725C214.187 136.725 218.261 140.643 208.963 148.335C199.664 156.028 192.716 158.026 185.859 157.673" stroke="white" stroke-linecap="round" stroke-linejoin="round"/>
<path d="M180.05 146.455C180.05 146.455 174.029 136.66 164.482 143.373C154.935 150.086 156.999 159.332 162.157 169.95C167.316 180.568 163.816 187.542 163.816 187.542" stroke="white" stroke-linecap="round" stroke-linejoin="round"/>
<path d="M161.949 135.106C161.949 135.106 150.195 135.445 151.096 150.778C151.997 166.11 157.469 166.019 158.671 173.411" stroke="white" stroke-linecap="round" stroke-linejoin="round"/>
<path d="M193.817 169.95C193.817 169.95 182.063 172.562 177.648 162.897" stroke="white" stroke-linecap="round" stroke-linejoin="round"/>
</g>
<path d="M205.15 171.413C205.15 171.413 203.217 164.36 198.097 166.737C192.978 169.114 197.457 175.879 199.991 179.092C200.327 179.613 200.807 180.026 201.372 180.281C201.938 180.536 202.565 180.622 203.178 180.528C203.792 180.434 204.364 180.164 204.828 179.752C205.291 179.34 205.625 178.802 205.79 178.204" fill="white"/>
<path d="M205.15 171.413C205.15 171.413 203.217 164.36 198.097 166.737C192.978 169.114 197.457 175.879 199.991 179.092C200.327 179.613 200.807 180.026 201.372 180.281C201.938 180.536 202.565 180.622 203.178 180.528C203.792 180.434 204.364 180.164 204.828 179.752C205.291 179.34 205.625 178.802 205.79 178.204" stroke="#263238" stroke-linecap="round" stroke-linejoin="round"/>
<path d="M181.536 201.633L180.987 205.617C160.836 224.462 174.144 268.749 186.799 297.037L178.715 322.582C178.715 322.582 213.193 334.062 244.616 325.076L241.612 295.078L238.125 271.648C238.125 271.648 240.998 263.668 241.559 248.14C242.121 232.612 212.88 192.909 181.536 201.633Z" fill="#263238"/>
<path d="M239 154.722C239 154.722 233.776 157.517 231.542 156.759C231.542 156.759 220.298 157.399 219.984 152.645C221.912 152.311 223.755 151.599 225.407 150.55C227.059 149.501 228.487 148.136 229.61 146.533C231.49 143.921 247.711 143.921 246.757 149.341C246.599 150.214 246.241 151.039 245.711 151.75C245.181 152.462 244.493 153.041 243.701 153.442" fill="white"/>
<path d="M239 154.722C239 154.722 233.776 157.517 231.542 156.759C231.542 156.759 220.298 157.399 219.984 152.645C221.912 152.311 223.755 151.599 225.407 150.55C227.059 149.501 228.487 148.136 229.61 146.533C231.49 143.921 247.711 143.921 246.757 149.341C246.599 150.214 246.241 151.039 245.711 151.75C245.181 152.462 244.493 153.041 243.701 153.442" stroke="#263238" stroke-linecap="round" stroke-linejoin="round"/>
<path d="M229.594 146.533C231.905 146.168 230.769 147.343 232.415 147.225C234.06 147.108 234.204 146.05 235.405 147.617C236.607 149.184 237.939 147.617 239.18 148.14" fill="white"/>
<path d="M229.594 146.533C231.905 146.168 230.769 147.343 232.415 147.225C234.06 147.108 234.204 146.05 235.405 147.617C236.607 149.184 237.939 147.617 239.18 148.14" stroke="#263238" stroke-linecap="round" stroke-linejoin="round"/>
<path d="M231.531 156.72C231.688 155.414 236.272 152.946 237.474 151.326L231.531 156.72Z" fill="white"/>
<path d="M231.531 156.72C231.688 155.414 236.272 152.946 237.474 151.326" stroke="#263238" stroke-linecap="round" stroke-linejoin="round"/>
<path d="M227.638 156.72C226.215 154.996 229.506 154.212 232.653 151.13L227.638 156.72Z" fill="white"/>
<path d="M227.638 156.72C226.215 154.996 229.506 154.212 232.653 151.13" stroke="#263238" stroke-linecap="round" stroke-linejoin="round"/>
<path d="M223.836 156.054C222.06 154.291 222.804 153.664 225.586 152.371C227.118 151.724 228.465 150.705 229.504 149.406" fill="white"/>
<path d="M223.836 156.054C222.06 154.291 222.804 153.664 225.586 152.371C227.118 151.724 228.465 150.705 229.504 149.406" stroke="#263238" stroke-linecap="round" stroke-linejoin="round"/>
<path d="M228.438 538.464C228.438 538.464 240.1 534.676 249.412 538.098L252.311 549.147L258.593 538.464C258.593 538.464 256.49 551.902 258.593 556.016C260.696 560.13 273.22 562.076 275.271 564.754C277.321 567.431 277.987 572.877 277.987 572.877H229.313L233.1 556.016L228.438 538.464Z" fill="#7E57C2" stroke="#263238" stroke-linecap="round" stroke-linejoin="round"/>
<path d="M131.347 538.464C131.347 538.464 140.489 534.676 149.801 538.098L148.913 549.147L160.262 538.464C160.262 538.464 153.118 551.902 155.221 556.016C157.323 560.13 169.848 562.076 171.898 564.754C173.949 567.431 174.615 572.877 174.615 572.877H125.914L130.955 556.016L131.347 538.464Z" fill="#7E57C2"/>
<mask id="mask2_115_2764" style="mask-type:luminance" maskUnits="userSpaceOnUse" x="125" y="536" width="50" height="37">
<path d="M131.347 538.464C131.347 538.464 140.489 534.676 149.801 538.098L148.913 549.147L160.262 538.464C160.262 538.464 153.118 551.902 155.221 556.016C157.323 560.13 169.848 562.076 171.898 564.754C173.949 567.431 174.615 572.877 174.615 572.877H125.914L130.955 556.016L131.347 538.464Z" fill="white"/>
</mask>
<g mask="url(#mask2_115_2764)">
<path opacity="0.3" d="M131.347 538.464C131.347 538.464 140.489 534.676 149.801 538.098L148.913 549.147L160.262 538.464C160.262 538.464 153.118 551.902 155.221 556.016C157.323 560.13 169.848 562.076 171.898 564.754C173.949 567.431 174.615 572.877 174.615 572.877H125.914L130.955 556.016L131.347 538.464Z" fill="black" fill-opacity="0.7"/>
</g>
<path d="M131.347 538.464C131.347 538.464 140.489 534.676 149.801 538.098L148.913 549.147L160.262 538.464C160.262 538.464 153.118 551.902 155.221 556.016C157.323 560.13 169.848 562.076 171.898 564.754C173.949 567.431 174.615 572.877 174.615 572.877H125.914L130.955 556.016L131.347 538.464Z" stroke="#263238" stroke-linecap="round" stroke-linejoin="round"/>
<path d="M229.32 287.829C229.32 287.829 236.36 278.413 237.613 273.15L239.063 277.721C239.063 277.721 235.341 288.169 229.32 293.589V287.829Z" fill="#BFBFBF" stroke="#263238" stroke-linecap="round" stroke-linejoin="round"/>
<path d="M201.398 292.335C201.398 292.335 211.246 296.044 218.22 293.719C222.813 292.001 226.957 289.264 230.339 285.714L232.612 289.841C232.612 289.841 216.875 317.267 201.398 313.113" fill="#7E57C2"/>
<path d="M201.398 292.335C201.398 292.335 211.246 296.044 218.22 293.719C222.813 292.001 226.957 289.264 230.339 285.714L232.612 289.841C232.612 289.841 216.875 317.267 201.398 313.113" stroke="#263238" stroke-linecap="round" stroke-linejoin="round"/>
<path d="M202.432 328.446C197.313 341.898 147.711 338.803 138.06 331.241C135.931 329.569 133.959 326.343 132.235 322.269C128.807 313.559 126.503 304.448 125.378 295.156C125.078 292.74 124.869 290.454 124.777 288.404C124.555 283.807 124.882 280.346 125.861 279.092C129.779 274.116 134.155 269.297 134.155 269.297C134.155 269.297 126.528 228.55 134.155 224.658C140.448 220.902 147.339 218.251 154.528 216.822C165.551 214.876 184.096 209.391 192.402 220.74C192.827 221.338 193.19 221.976 193.486 222.647C201.309 239.246 207.33 315.569 202.432 328.446Z" fill="#7E57C2"/>
<mask id="mask3_115_2764" style="mask-type:luminance" maskUnits="userSpaceOnUse" x="124" y="213" width="81" height="125">
<path d="M202.432 328.446C197.313 341.898 147.711 338.803 138.06 331.241C135.931 329.569 133.959 326.343 132.235 322.269C128.807 313.559 126.503 304.448 125.378 295.156C125.078 292.74 124.869 290.454 124.777 288.404C124.555 283.807 124.882 280.346 125.861 279.092C129.779 274.116 134.155 269.297 134.155 269.297C134.155 269.297 126.528 228.55 134.155 224.658C140.448 220.902 147.339 218.251 154.528 216.822C165.551 214.876 184.096 209.391 192.402 220.74C192.827 221.338 193.19 221.976 193.486 222.647C201.309 239.246 207.33 315.569 202.432 328.446Z" fill="white"/>
</mask>
<g mask="url(#mask3_115_2764)">
<path opacity="0.3" d="M202.429 328.446C197.309 341.898 147.707 338.803 138.056 331.241C135.927 329.569 133.955 326.343 132.231 322.269C129.515 312.983 127.007 302.261 125.44 295.156C124.46 290.676 123.833 287.647 123.781 287.32C124.032 287.768 124.397 288.142 124.839 288.404C127.177 290.076 134.543 293.197 157.489 294.712C157.489 294.712 140.798 299.348 127.712 293.615C127.712 293.615 132.192 320.623 137.011 325.951C141.83 331.28 163.706 335.773 168.877 332.847C174.049 329.922 170.536 302.47 171.607 299.662C172.678 296.854 176.831 294.516 177.053 293.615C177.275 292.714 178.176 279.536 178.176 279.536C178.176 279.536 145.97 272.928 137.011 273.176C128.052 273.424 140.798 267.051 149.758 268.083C158.717 269.114 176.622 272.928 177.053 273.176C177.484 273.424 173.331 233.787 168.695 227.858C164.058 221.929 174.545 222.19 177.053 231.619C179.456 240.761 185.477 273.934 185.908 276.219C185.803 274.404 184.602 254.931 183.374 247.67C182.133 240.056 182.251 230.026 183.57 228.994C184.889 227.962 191.55 225.324 192.176 223.888C192.51 223.378 192.957 222.953 193.482 222.647C201.305 239.246 207.326 315.569 202.429 328.446Z" fill="black" fill-opacity="0.7"/>
</g>
<path d="M202.432 328.446C197.313 341.898 147.711 338.803 138.06 331.241C135.931 329.569 133.959 326.343 132.235 322.269C128.807 313.559 126.503 304.448 125.378 295.156C125.078 292.74 124.869 290.454 124.777 288.404C124.555 283.807 124.882 280.346 125.861 279.092C129.779 274.116 134.155 269.297 134.155 269.297C134.155 269.297 126.528 228.55 134.155 224.658C140.448 220.902 147.339 218.251 154.528 216.822C165.551 214.876 184.096 209.391 192.402 220.74C192.827 221.338 193.19 221.976 193.486 222.647C201.309 239.246 207.33 315.569 202.432 328.446Z" stroke="#263238" stroke-linecap="round" stroke-linejoin="round"/>
<path d="M176.574 216.221C173.103 213.361 168.925 211.488 164.48 210.801C157.258 209.77 151.055 219.578 151.055 219.578H154.411C154.411 219.578 159.06 210.54 168.359 218.546" fill="#7E57C2"/>
<path d="M176.574 216.221C173.103 213.361 168.925 211.488 164.48 210.801C157.258 209.77 151.055 219.578 151.055 219.578H154.411C154.411 219.578 159.06 210.54 168.359 218.546" stroke="#263238" stroke-linecap="round" stroke-linejoin="round"/>
<path d="M142.267 223.195C142.267 223.195 161.386 221.641 167.59 226.552C173.793 231.462 177.058 271.452 177.058 271.452C177.058 271.452 148.431 263.499 140.203 267.626" stroke="#263238" stroke-linecap="round" stroke-linejoin="round"/>
<path d="M136.322 258.588C136.322 258.588 131.098 240.304 134.206 235.602C137.314 230.901 156.996 231.684 160.613 235.602C164.231 239.52 164.531 261.435 164.531 261.435C164.531 261.435 147.736 257.674 140.253 258.823" stroke="#263238" stroke-linecap="round" stroke-linejoin="round"/>
<path d="M127.023 289.841C128.055 291.147 164.323 297.598 170.605 293.458" stroke="#263238" stroke-linecap="round" stroke-linejoin="round"/>
<path d="M128.578 282.88C131.19 280.816 157.31 285.975 162.678 286.223C168.045 286.471 177.618 280.542 178.18 279.484C178.18 279.484 185.324 318.494 183.169 325.991C181.014 333.487 175.072 334.767 175.072 334.767" stroke="#263238" stroke-linecap="round" stroke-linejoin="round"/>
<path d="M135.289 323.431C135.289 323.431 136.843 332.207 168.879 334.793" stroke="#263238" stroke-linecap="round" stroke-linejoin="round"/>
<path d="M187.218 290.885C188.524 290.363 197.783 289.383 201.166 287.268C201.449 291.634 201.435 296.015 201.127 300.38C201.127 300.38 191.057 304.298 189.242 303.488C187.427 302.679 186.734 297.024 186.734 297.024" stroke="#263238" stroke-linecap="round" stroke-linejoin="round"/>
<path d="M199.687 300.981C199.687 300.981 200.536 317.606 199.687 319.879C198.838 322.151 189.801 325.494 188.769 325.233C187.737 324.972 185.922 308.96 185.922 308.96" stroke="#263238" stroke-linecap="round" stroke-linejoin="round"/>
<path d="M166.203 221.132C166.203 221.132 175.593 221.132 178.95 227.335C182.306 233.539 186.08 269.336 186.786 271.452" stroke="#263238" stroke-linecap="round" stroke-linejoin="round"/>
<path d="M183.172 216.796C183.172 216.796 204.068 205.329 214.999 208.869C225.93 212.408 230.345 223.457 230.345 223.457C230.345 223.457 226.609 213.139 216.214 213.805C205.818 214.471 190.838 224.802 190.838 224.802" fill="#7E57C2"/>
<path d="M183.172 216.796C183.172 216.796 204.068 205.329 214.999 208.869C225.93 212.408 230.345 223.457 230.345 223.457C230.345 223.457 226.609 213.139 216.214 213.805C205.818 214.471 190.838 224.802 190.838 224.802" stroke="#263238" stroke-linecap="round" stroke-linejoin="round"/>
<path d="M216.213 213.753C216.213 213.753 227.967 212.774 231.571 218.285C235.176 223.796 231.571 238.123 231.571 238.123C231.571 238.123 234.667 241.78 229.325 244.418C223.983 247.056 209.63 248.493 206.222 243.295C202.813 238.097 204.642 215.921 216.213 213.753Z" fill="#263238"/>
<path d="M230.732 239.155C230.732 239.155 218.299 284.094 222.374 288.482C227.622 288.775 232.822 289.651 237.876 291.094C261.214 297.037 274.444 292.727 274.444 292.727L271.963 305.722C248.585 305.108 225.978 309.352 207.068 301.647C207.068 301.647 199.375 268.422 206.859 240.513C206.859 240.513 209.027 237.718 215.452 236.882C220.658 236.077 225.986 236.869 230.732 239.155Z" fill="white" stroke="#263238" stroke-linecap="round" stroke-linejoin="round"/>
<path d="M270.826 305.761C275.267 308.673 281.692 304.102 287.635 304.664C293.577 305.225 290.704 288.208 290.704 288.208C290.704 288.208 283.273 284.656 281.092 283.859C278.911 283.062 275.659 287.986 268.789 294.307" fill="white"/>
<path d="M270.826 305.761C275.267 308.673 281.692 304.102 287.635 304.664C293.577 305.225 290.704 288.208 290.704 288.208C290.704 288.208 283.273 284.656 281.092 283.859C278.911 283.062 275.659 287.986 268.789 294.307" stroke="#263238" stroke-linecap="round" stroke-linejoin="round"/>
<path d="M183.992 205.447C190.559 204.871 197.176 205.369 203.582 206.923" stroke="white" stroke-linecap="round" stroke-linejoin="round"/>
<path d="M205.792 242.472C205.792 242.472 203.781 239.533 205.792 238.123C205.792 238.123 199.941 233.617 200.777 228.981" stroke="white" stroke-linecap="round" stroke-linejoin="round"/>
<path d="M233.178 232.39L232.616 238.123C232.616 238.123 235.502 239.964 230.344 242.472" stroke="white" stroke-linecap="round" stroke-linejoin="round"/>
<path d="M235.62 273.15C235.62 273.15 229.43 277.838 225.891 277.068" stroke="white" stroke-linecap="round" stroke-linejoin="round"/>
<path d="M210.031 318.351C210.031 318.351 224.841 326.957 240.513 323.431" stroke="white" stroke-linecap="round" stroke-linejoin="round"/>
<path d="M282.883 289.841C285.675 290.214 288.434 290.799 291.137 291.591" stroke="#263238" stroke-linecap="round" stroke-linejoin="round"/>
<path d="M282.883 295.26C282.883 295.26 289.583 295.26 291.398 295.456" stroke="#263238" stroke-linecap="round" stroke-linejoin="round"/>
<path d="M282.883 299.636C282.883 299.636 291.307 299.387 291.137 300.236" stroke="#263238" stroke-linecap="round" stroke-linejoin="round"/>
<path d="M130.133 567.039C130.133 567.039 143.271 565.733 150.258 568.58" stroke="#263238" stroke-linecap="round" stroke-linejoin="round"/>
<path d="M133.211 554.776C133.211 554.776 140.446 553.104 144.325 554.776" stroke="#263238" stroke-linecap="round" stroke-linejoin="round"/>
<path d="M155.219 556.016C155.219 556.016 156.995 559.281 156.525 561.606" stroke="#263238" stroke-linecap="round" stroke-linejoin="round"/>
<path d="M171.896 564.754C168.743 565.066 165.567 565.066 162.414 564.754" stroke="#263238" stroke-linecap="round" stroke-linejoin="round"/>
<path d="M258.594 556.016C258.594 556.016 263.4 561.606 263.4 563.16" stroke="#263238" stroke-linecap="round" stroke-linejoin="round"/>
<path d="M275.297 564.754C273.002 565.178 270.657 565.266 268.336 565.015" stroke="#263238" stroke-linecap="round" stroke-linejoin="round"/>
<path d="M232.68 568.58C232.68 568.58 247.398 566.255 256.188 568.58" stroke="#263238" stroke-linecap="round" stroke-linejoin="round"/>
<path d="M236.297 556.016C236.297 556.016 243.532 556.238 246.64 554.41" stroke="#263238" stroke-linecap="round" stroke-linejoin="round"/>
<path d="M204.199 385.688C204.199 385.688 196.245 433.566 185.915 444.928C185.915 444.928 172.489 482.058 167.148 491.944C161.806 501.83 155.211 533.527 155.211 533.527" stroke="#263238" stroke-linecap="round" stroke-linejoin="round"/>
<path d="M166.203 440.514C166.203 440.514 171.114 433.357 176.651 440.514" stroke="#263238" stroke-linecap="round" stroke-linejoin="round"/>
<path d="M228.758 447.958C228.758 447.958 231.135 435.342 241.465 445.673" stroke="#263238" stroke-linecap="round" stroke-linejoin="round"/>
<path d="M241.469 330.418C241.469 330.418 247.581 356.695 246.549 371.191C246.549 371.191 249.997 425.429 248.965 440.514" stroke="#263238" stroke-linecap="round" stroke-linejoin="round"/>
<path d="M254.672 200.824C254.672 200.824 261.084 204.049 264.872 201.176" stroke="#263238" stroke-linecap="round" stroke-linejoin="round"/>
<path d="M477.514 534.716C477.514 534.716 474.772 505.853 480.348 479.132C485.925 452.411 475.124 449.251 470.658 456.578C466.191 463.904 464.742 488.17 464.742 488.17C464.742 488.17 462.495 463.578 458.63 451.04C452.962 432.665 446.876 418.664 438.792 422.804C429.401 427.584 451.225 460.678 455.521 499.414C455.521 499.414 437.943 481.313 429.519 464.44C421.095 447.566 410.869 457.818 418.379 472.929C425.888 488.039 443.78 493.564 453.641 509.588C453.641 509.588 429.023 494.909 424.047 503.803C421.239 508.818 431.256 509.875 435.722 510.959C457.428 516.183 467.484 538.738 467.484 538.738L477.514 534.716Z" fill="#7E57C2" stroke="#263238" stroke-linecap="round" stroke-linejoin="round"/>
<path opacity="0.2" d="M477.514 534.716C477.514 534.716 474.772 505.853 480.348 479.132C485.925 452.411 475.124 449.251 470.658 456.578C466.191 463.904 464.742 488.17 464.742 488.17C464.742 488.17 462.495 463.578 458.63 451.04C452.962 432.665 446.876 418.664 438.792 422.804C429.401 427.584 451.225 460.678 455.521 499.414C455.521 499.414 437.943 481.313 429.519 464.44C421.095 447.566 410.869 457.818 418.379 472.929C425.888 488.039 443.78 493.564 453.641 509.588C453.641 509.588 429.023 494.909 424.047 503.803C421.239 508.818 431.256 509.875 435.722 510.959C457.428 516.183 467.484 538.738 467.484 538.738L477.514 534.716Z" fill="black" fill-opacity="0.7" stroke="#263238" stroke-miterlimit="10"/>
<path d="M476.491 499.728C476.491 499.728 477.94 473.438 468.354 451.654C458.768 429.87 467.323 428.146 472.455 433.618C477.588 439.09 481.506 467.274 481.506 467.274C481.506 467.274 486.011 442.016 483.961 424.541C481.911 407.067 482.054 397.246 489.25 397.246C498.392 397.246 496.29 440.005 488.859 465.628C488.859 465.628 500.613 447.005 504.713 431.085C508.814 415.164 519.419 422.06 515.736 436.309C512.053 450.557 497.818 458.511 492.306 473.961C492.306 473.961 510.59 456.983 516.507 463.669C519.811 467.444 511.452 470.199 507.835 471.884C490.269 480.295 485.763 501.334 485.763 501.334L476.491 499.728Z" fill="#7E57C2" stroke="#263238" stroke-linecap="round" stroke-linejoin="round"/>
<path d="M473.203 450.57C481.353 468.945 481.823 495.758 481.823 495.758C481.823 495.758 492.532 442.486 489.842 420.01" stroke="#263238" stroke-linecap="round" stroke-linejoin="round"/>
<path d="M508.423 440.005C508.423 440.005 496.46 465.236 485.516 474.914" stroke="#263238" stroke-linecap="round" stroke-linejoin="round"/>
<path d="M508.422 467.195C508.422 467.195 488.205 480.255 483.242 488.17" stroke="#263238" stroke-linecap="round" stroke-linejoin="round"/>
<path d="M459.544 531.921C459.544 531.921 444.107 510.646 440.424 487.138C436.741 463.63 428.604 466.83 427.22 474.182C425.836 481.535 437.786 507.381 437.786 507.381C437.786 507.381 420.337 488.444 412.697 472.694C405.057 456.943 399.559 448.689 393.499 452.581C385.768 457.544 410.673 492.362 430.772 509.902C430.772 509.902 410.856 500.564 398.775 489.41C386.695 478.257 381.523 489.763 392.245 499.767C402.968 509.771 419.319 508.752 432.313 518.782C432.313 518.782 407.708 514.407 406.389 523.197C405.645 528.159 414.134 525.926 418.143 525.43C437.459 523.014 452.609 538.281 452.609 538.281L459.544 531.921Z" fill="#7E57C2" stroke="#263238" stroke-linecap="round" stroke-linejoin="round"/>
<path d="M435.735 488.771C438.817 508.648 452.909 531.451 452.909 531.451C452.909 531.451 415.113 492.427 405.266 472.08" stroke="#263238" stroke-linecap="round" stroke-linejoin="round"/>
<path d="M400.406 498.892C400.406 498.892 424.097 513.663 438.541 515.87" stroke="#263238" stroke-linecap="round" stroke-linejoin="round"/>
<path d="M415.094 521.799C415.094 521.799 439.124 521.799 447.6 525.848" stroke="#263238" stroke-linecap="round" stroke-linejoin="round"/>
<path d="M515.766 440.449C515.766 440.449 535.434 442.003 536.244 456.512C536.244 456.512 516.34 465.667 515.766 440.449Z" fill="#7E57C2" stroke="#263238" stroke-linecap="round" stroke-linejoin="round"/>
<path d="M554.656 444.04C554.656 444.04 565.64 429.191 583.388 436.805C583.388 436.818 572.548 454.775 554.656 444.04Z" fill="#7E57C2" stroke="#263238" stroke-linecap="round" stroke-linejoin="round"/>
<path d="M581.889 397.168C581.889 397.168 585.089 425.756 559.047 417.92C559.047 417.92 567.301 396.867 581.889 397.168Z" fill="#7E57C2" stroke="#263238" stroke-linecap="round" stroke-linejoin="round"/>
<path d="M549.957 381.274C549.957 381.274 570.526 392.362 555.403 409.183C555.403 409.183 540.985 397.168 549.957 381.274Z" fill="#7E57C2" stroke="#263238" stroke-linecap="round" stroke-linejoin="round"/>
<path d="M524.656 406.793C524.656 406.793 547.015 404.534 547.015 425.234C547.015 425.234 524.656 426.122 524.656 406.793Z" fill="#7E57C2" stroke="#263238" stroke-linecap="round" stroke-linejoin="round"/>
<path d="M545.736 486.054C545.736 486.054 535.549 464.662 545.331 442.865C555.113 421.068 558.391 402.731 553.311 389.802" stroke="#263238" stroke-linecap="round" stroke-linejoin="round"/>
<path d="M532 412.356C532 412.356 545.4 417.685 549.957 431.489" stroke="#263238" stroke-linecap="round" stroke-linejoin="round"/>
<path d="M574.818 408.595C574.818 408.595 567.073 419.148 553.922 418.011" stroke="#263238" stroke-linecap="round" stroke-linejoin="round"/>
<path d="M574.819 439.848C574.819 439.848 553.362 446.038 544.781 444.014" stroke="#263238" stroke-linecap="round" stroke-linejoin="round"/>
<path d="M522.18 446.979C522.18 446.979 531.766 457.505 541.417 457.335" stroke="#263238" stroke-linecap="round" stroke-linejoin="round"/>
<path d="M390.684 514.956C390.684 514.956 373.602 519.135 375.012 532.025C374.947 532.025 393.793 537.249 390.684 514.956Z" fill="#7E57C2" stroke="#263238" stroke-linecap="round" stroke-linejoin="round"/>
<path d="M356.954 523.706C356.954 523.706 345.2 512.2 330.625 521.447C330.625 521.421 342.732 535.682 356.954 523.706Z" fill="#7E57C2" stroke="#263238" stroke-linecap="round" stroke-linejoin="round"/>
<path d="M326.289 486.289C326.289 486.289 327.595 511.9 349.366 501.256C349.366 501.256 339.088 483.938 326.289 486.289Z" fill="#7E57C2" stroke="#263238" stroke-linecap="round" stroke-linejoin="round"/>
<path d="M352.136 467.718C352.136 467.718 335.641 480.425 351.313 493.08C351.313 493.08 362.309 480.438 352.136 467.718Z" fill="#7E57C2" stroke="#263238" stroke-linecap="round" stroke-linejoin="round"/>
<path d="M378.057 486.589C378.057 486.589 358.049 487.791 361 506.023C361 506.023 380.825 503.607 378.057 486.589Z" fill="#7E57C2" stroke="#263238" stroke-linecap="round" stroke-linejoin="round"/>
<path d="M370.807 559.399C370.807 559.399 376.737 539.104 365.009 521.316C353.281 503.528 347.744 487.83 350.395 475.711" stroke="#263238" stroke-linecap="round" stroke-linejoin="round"/>
<path d="M372.388 492.532C372.388 492.532 361.339 499.14 359.328 511.952" stroke="#263238" stroke-linecap="round" stroke-linejoin="round"/>
<path d="M334.148 495.34C334.148 495.34 342.468 503.528 353.856 500.655" stroke="#263238" stroke-linecap="round" stroke-linejoin="round"/>
<path d="M338.602 522.87C338.602 522.87 358.374 525.247 365.597 522.243" stroke="#263238" stroke-linecap="round" stroke-linejoin="round"/>
<path d="M385.986 521.63C385.986 521.63 379.039 532.26 370.523 533.488" stroke="#263238" stroke-linecap="round" stroke-linejoin="round"/>
<path d="M578.925 489.071L576.757 488.993L577.306 482.671C577.424 482.055 577.336 481.418 577.058 480.856C576.601 480.151 575.66 480.007 574.838 479.824C572.436 479.276 570.309 477.886 568.843 475.906C567.798 474.483 567.054 472.733 565.539 471.832C563.423 470.526 560.759 471.466 558.395 472.145C556.031 472.824 553.001 473.02 551.591 471.009C550.768 469.834 550.716 468.136 549.58 467.248C548.443 466.36 546.354 466.934 544.852 467.679C539.066 470.526 532.602 474.209 531.491 480.595C531.1 482.776 524.335 491.879 521.918 493.093C517.7 495.196 509.72 491.174 505.437 489.75C496.245 489.528 487.08 488.655 478.011 487.138C475.399 487.138 472.787 489.75 470.175 492.362C468.869 493.668 468.869 494.974 467.563 496.28C463.645 500.198 457.115 502.81 455.809 509.34C455.809 518.482 445.361 523.706 437.525 527.624C425.771 532.848 414.017 534.154 402.263 539.378C395.733 541.99 387.897 541.99 380.061 541.99C370.919 549.826 364.389 558.968 357.859 569.416C356.553 570.722 355.247 573.334 352.635 573.334C269.051 573.334 184.161 573.334 100.172 572.877V602.68H579.474L578.925 489.071Z" fill="white"/>
<path d="M100.156 572.877C184.145 573.334 269.035 573.334 352.619 573.334C355.231 573.334 356.537 570.722 357.843 569.416C364.373 558.968 370.903 549.826 380.045 541.99C387.881 541.99 395.717 541.99 402.247 539.378C414.001 534.154 425.755 532.848 437.509 527.624C445.345 523.706 455.793 518.482 455.793 509.34C457.099 502.81 463.629 500.198 467.547 496.28C468.853 494.974 468.853 493.668 470.159 492.362C472.771 489.75 475.383 487.138 477.995 487.138C487.064 488.655 496.229 489.528 505.421 489.75C509.705 491.174 517.684 495.196 521.903 493.093C524.319 491.879 531.045 482.776 531.476 480.595C532.586 474.248 539.051 470.526 544.836 467.679C546.338 466.934 548.245 466.229 549.564 467.248C550.883 468.266 550.752 469.86 551.575 471.009C552.986 473.02 556.002 472.811 558.379 472.145C560.756 471.479 563.407 470.578 565.523 471.832C567.038 472.733 567.783 474.444 568.827 475.906C570.294 477.886 572.42 479.276 574.822 479.824C575.645 480.007 576.585 480.151 577.042 480.856" stroke="#263238" stroke-linecap="round" stroke-linejoin="round"/>
<path d="M508.422 514.956C513.998 515.374 522.083 511.626 522.174 511.952C522.265 512.279 531.995 513.454 531.995 513.454C531.995 513.454 544.885 517.124 547.014 514.956C549.143 512.788 555.712 514.277 560.949 513.793C566.186 513.31 571.528 517.555 571.528 517.555C571.528 517.555 580.774 525.482 581.976 525.848C583.177 526.214 592.502 528.943 596.12 531.451" stroke="#263238" stroke-linecap="round" stroke-linejoin="round"/>
<path d="M352.617 573.334H374.819C374.819 573.334 389.185 565.929 396.551 566.739C403.917 567.548 410.199 572.877 410.199 572.877H422.893L438.487 574.836H448.778" stroke="#263238" stroke-linecap="round" stroke-linejoin="round"/>
<path d="M501.086 540.997C497.991 537.589 485.048 536.87 483.246 533.619C481.444 530.367 470.095 537.811 468.54 536.662C466.986 535.512 458.811 537.576 457.479 541.455C456.147 545.333 456.8 546.039 451.562 547.985" stroke="#263238" stroke-linecap="round" stroke-linejoin="round"/>
<path d="M584.03 495.118C583.042 494.251 581.779 493.761 580.465 493.735C579.15 493.709 577.869 494.148 576.847 494.974C576.552 495.256 576.237 495.518 575.907 495.758C574.962 496.168 573.927 496.326 572.903 496.215C570.584 496.27 568.344 497.072 566.516 498.5C565.975 499.027 565.336 499.444 564.636 499.728C564.207 499.827 563.77 499.884 563.33 499.898C562.177 500.05 561.083 500.5 560.156 501.204" stroke="#263238" stroke-linecap="round" stroke-linejoin="round"/>
<path d="M515.242 573.856C520.923 576.364 527.937 574.157 532.22 569.625C535.616 566.007 538.371 560.627 543.334 560.418C544.64 560.418 545.946 560.705 547.252 560.718C550.191 560.718 552.842 559.138 555.571 558.106C558.301 557.074 561.71 556.513 563.917 558.446C565.38 559.752 565.993 561.828 567.587 562.951C569.18 564.074 571.23 563.905 573.111 564.257C574.992 564.61 577.029 566.138 576.637 568.019" stroke="#263238" stroke-linecap="round" stroke-linejoin="round"/>
</svg>
