<svg width="14" height="10" viewBox="0 0 14 10" fill="none" xmlns="http://www.w3.org/2000/svg">
<g id="Group">
<path id="Vector" fill-rule="evenodd" clip-rule="evenodd" d="M0 5.37547C0 5.24287 0.052675 5.1157 0.146437 5.02194C0.240199 4.92817 0.367368 4.8755 0.499968 4.8755H12.2922L9.14542 1.7297C9.05154 1.63582 8.99879 1.50849 8.99879 1.37572C8.99879 1.24295 9.05154 1.11562 9.14542 1.02174C9.2393 0.927864 9.36663 0.875122 9.49939 0.875122C9.63216 0.875122 9.75949 0.927864 9.85337 1.02174L13.8531 5.02149C13.8997 5.06793 13.9366 5.1231 13.9618 5.18385C13.987 5.24459 14 5.3097 14 5.37547C14 5.44123 13.987 5.50635 13.9618 5.56709C13.9366 5.62783 13.8997 5.683 13.8531 5.72944L9.85337 9.72919C9.75949 9.82307 9.63216 9.87581 9.49939 9.87581C9.36663 9.87581 9.2393 9.82307 9.14542 9.72919C9.05154 9.63531 8.99879 9.50798 8.99879 9.37521C8.99879 9.24244 9.05154 9.11511 9.14542 9.02123L12.2922 5.87543H0.499968C0.367368 5.87543 0.240199 5.82276 0.146437 5.729C0.052675 5.63523 0 5.50807 0 5.37547Z" fill="white"/>
</g>
</svg>
