<svg width="53" height="53" viewBox="0 0 53 53" fill="none" xmlns="http://www.w3.org/2000/svg">
<g id="bxs-quote-alt-left">
<path id="Vector" d="M14.3534 22.0833C13.861 22.0833 13.3884 22.1584 12.918 22.2268C13.0704 21.7145 13.2272 21.1933 13.479 20.7252C13.7307 20.045 14.1238 19.4554 14.5147 18.8613C14.8415 18.2187 15.4179 17.7837 15.8419 17.2338C16.2857 16.6994 16.8908 16.3438 17.37 15.9C17.8404 15.4362 18.4565 15.2043 18.9468 14.8775C19.4591 14.5838 19.9052 14.2592 20.3822 14.1046L21.5725 13.6143L22.6192 13.1793L21.5482 8.89954L20.2298 9.21754C19.808 9.32354 19.2935 9.4472 18.7083 9.59516C18.1098 9.70558 17.4716 10.0081 16.7605 10.2842C16.0583 10.5977 15.2456 10.8097 14.4904 11.3132C13.7307 11.7947 12.854 12.1966 12.0811 12.8414C11.3324 13.5061 10.4292 14.0825 9.76232 14.9283C9.03357 15.7189 8.31366 16.5492 7.75495 17.4944C7.10791 18.3954 6.66845 19.3847 6.2047 20.363C5.78512 21.3413 5.44724 22.3417 5.1712 23.3133C4.64782 25.2611 4.41374 27.1117 4.3232 28.695C4.24812 30.2806 4.29228 31.599 4.38503 32.553C4.41816 33.0035 4.47999 33.4407 4.52416 33.7433L4.57937 34.1143L4.63678 34.101C5.02956 35.9358 5.93375 37.6218 7.24474 38.9642C8.55574 40.3065 10.22 41.2503 12.0449 41.6863C13.8699 42.1223 15.781 42.0327 17.5572 41.4279C19.3334 40.8231 20.9021 39.7279 22.0817 38.2688C23.2614 36.8097 24.004 35.0465 24.2234 33.183C24.4429 31.3196 24.1303 29.4321 23.3218 27.7389C22.5133 26.0457 21.242 24.6159 19.6549 23.6151C18.0678 22.6142 16.2298 22.0832 14.3534 22.0833ZM38.6451 22.0833C38.1527 22.0833 37.6801 22.1584 37.2097 22.2268C37.3621 21.7145 37.5189 21.1933 37.7706 20.7252C38.0224 20.045 38.4154 19.4554 38.8063 18.8613C39.1332 18.2187 39.7095 17.7837 40.1335 17.2338C40.5774 16.6994 41.1825 16.3438 41.6617 15.9C42.1321 15.4362 42.7482 15.2043 43.2384 14.8775C43.7508 14.5838 44.1969 14.2592 44.6739 14.1046L45.8642 13.6143L46.9109 13.1793L45.8399 8.89954L44.5215 9.21754C44.0997 9.32354 43.5852 9.4472 42.9999 9.59516C42.4015 9.70558 41.7633 10.0081 41.0522 10.2842C40.3522 10.6 39.5373 10.8097 38.782 11.3155C38.0224 11.7969 37.1457 12.1988 36.3727 12.8436C35.6241 13.5083 34.7209 14.0847 34.054 14.9283C33.3252 15.7189 32.6053 16.5492 32.0466 17.4944C31.3996 18.3954 30.9601 19.3847 30.4964 20.363C30.0768 21.3413 29.7389 22.3417 29.4629 23.3133C28.9395 25.2611 28.7054 27.1117 28.6149 28.695C28.5398 30.2806 28.5839 31.599 28.6767 32.553C28.7098 33.0035 28.7717 33.4407 28.8158 33.7433L28.871 34.1143L28.9284 34.101C29.3212 35.9358 30.2254 37.6218 31.5364 38.9642C32.8474 40.3065 34.5116 41.2503 36.3366 41.6863C38.1616 42.1223 40.0727 42.0327 41.8489 41.4279C43.625 40.8231 45.1937 39.7279 46.3734 38.2688C47.5531 36.8097 48.2956 35.0465 48.5151 33.183C48.7345 31.3196 48.4219 29.4321 47.6134 27.7389C46.805 26.0457 45.5337 24.6159 43.9466 23.6151C42.3595 22.6142 40.5214 22.0832 38.6451 22.0833Z" fill="#DED8EB"/>
</g>
</svg>
