<svg width="23" height="23" viewBox="0 0 23 23" fill="none" xmlns="http://www.w3.org/2000/svg">
<g id="cart_solid">
<path id="Vector" fill-rule="evenodd" clip-rule="evenodd" d="M3.42631 3.17624C3.34231 3.16456 3.23405 3.16252 2.84483 3.16252H1.15156C0.675216 3.16252 0.289062 2.77638 0.289062 2.30002C0.289062 1.82368 0.675216 1.43752 1.15156 1.43752H2.84483C2.8638 1.43752 2.8825 1.43752 2.90095 1.43751C3.20777 1.43741 3.44571 1.43733 3.66407 1.46771C4.87531 1.63627 5.88081 2.48806 6.2462 3.6551C6.26408 3.71222 6.27999 3.77113 6.29468 3.83271L18.8071 5.59917C18.8462 5.60467 18.8847 5.61009 18.9226 5.61542C19.5383 5.70193 20.0134 5.76866 20.4067 5.9385C21.4768 6.40065 22.206 7.41403 22.3041 8.57557C22.3402 9.00243 22.2526 9.47401 22.1389 10.0854C22.1319 10.1231 22.1248 10.1613 22.1176 10.2001C22.1109 10.2366 22.1042 10.2726 22.0977 10.3081C21.9533 11.0885 21.8544 11.6234 21.6538 12.0812C21.1087 13.325 20.0094 14.2394 18.687 14.549C18.2003 14.663 17.6564 14.6627 16.8627 14.6625C16.8266 14.6625 16.7901 14.6625 16.7529 14.6625H8.11802C8.16295 14.8994 8.20594 15.0979 8.25272 15.2705C8.34976 15.6286 8.44302 15.7928 8.53968 15.9022C8.63124 16.0057 8.73726 16.0955 8.85447 16.1689C8.9782 16.2462 9.15559 16.3113 9.52471 16.3481C9.91011 16.3866 10.4121 16.3875 11.1658 16.3875H19.9349C20.4112 16.3875 20.7974 16.7737 20.7974 17.25C20.7974 17.7263 20.4112 18.1125 19.9349 18.1125H11.1236C10.4232 18.1125 9.83459 18.1126 9.35337 18.0645C8.84626 18.0139 8.37569 17.904 7.93989 17.6315C7.68203 17.4702 7.44878 17.2727 7.24734 17.0447C6.9069 16.6597 6.72108 16.2136 6.58777 15.7218C6.46128 15.255 6.36454 14.6743 6.24941 13.9834L4.70913 4.74182C4.64515 4.3579 4.62534 4.25145 4.6 4.17051C4.43392 3.64004 3.97687 3.25287 3.42631 3.17624Z" fill="white"/>
<path id="Vector_2" d="M20.7 21.2748C20.7 22.2275 19.9277 22.9998 18.975 22.9998C18.0223 22.9998 17.25 22.2275 17.25 21.2748C17.25 20.3221 18.0223 19.5498 18.975 19.5498C19.9277 19.5498 20.7 20.3221 20.7 21.2748Z" fill="white"/>
<path id="Vector_3" d="M10.3484 21.2748C10.3484 22.2275 9.57613 22.9998 8.62344 22.9998C7.67074 22.9998 6.89844 22.2275 6.89844 21.2748C6.89844 20.3221 7.67074 19.5498 8.62344 19.5498C9.57613 19.5498 10.3484 20.3221 10.3484 21.2748Z" fill="white"/>
</g>
</svg>
