<svg width="35" height="35" viewBox="0 0 35 35" fill="none" xmlns="http://www.w3.org/2000/svg">
<g id="cicsplex">
<path id="Vector" d="M8.75002 20.3438V18.5938H6.56252V20.3438C6.56007 21.4073 6.76775 22.4609 7.17363 23.444C7.57951 24.4271 8.1756 25.3203 8.92766 26.0724C9.67972 26.8244 10.5729 27.4205 11.556 27.8264C12.5391 28.2323 13.5927 28.44 14.6563 28.4375H16.4063V26.25H14.6563C13.8798 26.2532 13.1103 26.1026 12.3923 25.8069C11.6743 25.5112 11.0219 25.0763 10.4728 24.5272C9.92374 23.9781 9.48881 23.3258 9.19312 22.6077C8.89743 21.8897 8.74684 21.1203 8.75002 20.3438Z" fill="white"/>
<path id="Vector_2" d="M30.625 19.6875H21.875C21.2954 19.6892 20.74 19.9203 20.3301 20.3301C19.9203 20.74 19.6892 21.2954 19.6875 21.875V30.625C19.6892 31.2046 19.9203 31.76 20.3301 32.1699C20.74 32.5797 21.2954 32.8108 21.875 32.8125H30.625C31.2046 32.8108 31.76 32.5797 32.1699 32.1699C32.5797 31.76 32.8108 31.2046 32.8125 30.625V21.875C32.8108 21.2954 32.5797 20.74 32.1699 20.3301C31.76 19.9203 31.2046 19.6892 30.625 19.6875ZM21.875 30.625V21.875H30.625V30.625H21.875Z" fill="white"/>
<path id="Vector_3" d="M26.25 14.6563V16.4063H28.4375V14.6563C28.44 13.5927 28.2323 12.5391 27.8264 11.556C27.4205 10.5729 26.8244 9.67972 26.0724 8.92766C25.3203 8.1756 24.4271 7.57951 23.444 7.17363C22.4609 6.76775 21.4073 6.56007 20.3438 6.56252H18.5938V8.75002H20.3438C21.1203 8.74684 21.8897 8.89743 22.6077 9.19312C23.3258 9.48881 23.9781 9.92374 24.5272 10.4728C25.0763 11.0219 25.5112 11.6743 25.8069 12.3923C26.1026 13.1103 26.2532 13.8798 26.25 14.6563Z" fill="white"/>
<path id="Vector_4" d="M13.125 2.1875H4.375C3.79537 2.18923 3.23998 2.42026 2.83012 2.83012C2.42026 3.23998 2.18923 3.79537 2.1875 4.375V13.125C2.18923 13.7046 2.42026 14.26 2.83012 14.6699C3.23998 15.0797 3.79537 15.3108 4.375 15.3125H13.125C13.7046 15.3108 14.26 15.0797 14.6699 14.6699C15.0797 14.26 15.3108 13.7046 15.3125 13.125V4.375C15.3108 3.79537 15.0797 3.23998 14.6699 2.83012C14.26 2.42026 13.7046 2.18923 13.125 2.1875ZM4.375 13.125V4.375H13.125V13.125H4.375Z" fill="white"/>
</g>
</svg>
