<svg width="35" height="35" viewBox="0 0 35 35" fill="none" xmlns="http://www.w3.org/2000/svg">
<g id="envelope">
<g id="Group">
<path id="Vector" d="M0 8.75C0 7.58968 0.460936 6.47688 1.28141 5.65641C2.10188 4.83594 3.21468 4.375 4.375 4.375H30.625C31.7853 4.375 32.8981 4.83594 33.7186 5.65641C34.5391 6.47688 35 7.58968 35 8.75V26.25C35 27.4103 34.5391 28.5231 33.7186 29.3436C32.8981 30.1641 31.7853 30.625 30.625 30.625H4.375C3.21468 30.625 2.10188 30.1641 1.28141 29.3436C0.460936 28.5231 0 27.4103 0 26.25V8.75ZM4.375 6.5625C3.79484 6.5625 3.23844 6.79297 2.8282 7.2032C2.41797 7.61344 2.1875 8.16984 2.1875 8.75V9.22469L17.5 18.4122L32.8125 9.22469V8.75C32.8125 8.16984 32.582 7.61344 32.1718 7.2032C31.7616 6.79297 31.2052 6.5625 30.625 6.5625H4.375ZM32.8125 11.7753L22.5138 17.955L32.8125 24.2922V11.7753ZM32.7381 26.8166L20.4006 19.2238L17.5 20.9628L14.5994 19.2238L2.26188 26.8144C2.38618 27.2799 2.66069 27.6913 3.04279 27.9848C3.42489 28.2783 3.89319 28.4374 4.375 28.4375H30.625C31.1065 28.4376 31.5746 28.2787 31.9567 27.9857C32.3387 27.6926 32.6134 27.2817 32.7381 26.8166ZM2.1875 24.2922L12.4862 17.955L2.1875 11.7753V24.2922Z" fill="white"/>
</g>
</g>
</svg>
