<svg width="35" height="35" viewBox="0 0 35 35" fill="none" xmlns="http://www.w3.org/2000/svg">
<g id="ios-infinite">
<path id="Vector" d="M31.2266 12.4687C29.8594 11.1289 28.0273 10.3906 26.0859 10.3906C24.1377 10.3906 22.3125 11.1289 20.9453 12.4687L18.8125 14.5195C18.7031 14.6289 18.7031 14.8066 18.8125 14.9092L20.1387 16.2148C20.2412 16.3174 20.4121 16.3174 20.5215 16.2148L22.6406 14.1572C23.5635 13.2617 24.7803 12.7695 26.0791 12.7695C27.3779 12.7695 28.5947 13.2617 29.5176 14.1572C30.4336 15.0527 30.9326 16.2422 30.9326 17.5068C30.9326 18.7646 30.4268 19.9541 29.5176 20.8359C28.5947 21.7314 27.3779 22.2236 26.0791 22.2236C24.7803 22.2236 23.5635 21.7314 22.6406 20.8359L14.0547 12.4687C12.6738 11.1289 10.8486 10.3906 8.91406 10.3906C6.96582 10.3906 5.14062 11.1289 3.77344 12.4687C2.39941 13.8086 1.64062 15.5928 1.64062 17.5C1.64062 19.4004 2.39941 21.1914 3.77344 22.5312C5.14062 23.8711 6.97266 24.6094 8.91406 24.6094C10.8623 24.6094 12.6875 23.8711 14.0547 22.5312L16.1738 20.4805C16.2832 20.3711 16.2832 20.1934 16.1738 20.0908L14.8477 18.7988C14.7451 18.6963 14.5742 18.6963 14.4648 18.7988L12.3457 20.8428C11.4229 21.7383 10.2061 22.2305 8.90723 22.2305C7.6084 22.2305 6.3916 21.7383 5.46875 20.8428C4.55273 19.9473 4.05371 18.7578 4.05371 17.4932C4.05371 16.2354 4.55957 15.0527 5.46875 14.1641C6.3916 13.2686 7.6084 12.7764 8.90723 12.7764C10.2061 12.7764 11.4229 13.2686 12.3457 14.1641L20.9248 22.5381C22.3057 23.8779 24.1309 24.6162 26.0654 24.6162C28.0137 24.6162 29.8389 23.8779 31.2061 22.5381C32.5869 21.1982 33.3457 19.4141 33.3457 17.5068C33.3594 15.5996 32.6006 13.8086 31.2266 12.4687Z" fill="white"/>
</g>
</svg>
