<svg width="35" height="35" viewBox="0 0 35 35" fill="none" xmlns="http://www.w3.org/2000/svg">
<g id="layers">
<path id="Vector" d="M17.5028 26.2501C17.3218 26.2501 17.1436 26.205 16.9844 26.1188L2.76562 18.4626L3.8025 16.5376L17.5028 23.9138L31.2031 16.5376L32.24 18.4626L18.0213 26.1188C17.862 26.205 17.6838 26.2501 17.5028 26.2501Z" fill="white"/>
<path id="Vector_2" d="M17.5028 32.8126C17.3218 32.8126 17.1436 32.7675 16.9844 32.6813L2.76562 25.0251L3.8025 23.1001L17.5028 30.4763L31.2031 23.1001L32.24 25.0251L18.0213 32.6813C17.862 32.7675 17.6838 32.8126 17.5028 32.8126Z" fill="white"/>
<path id="Vector_3" d="M17.4989 19.6875C17.3179 19.6874 17.1397 19.6423 16.9805 19.5562L2.76175 11.9C2.58811 11.8062 2.44306 11.6673 2.34197 11.4979C2.24087 11.3284 2.1875 11.1348 2.1875 10.9375C2.1875 10.7402 2.24087 10.5465 2.34197 10.3771C2.44306 10.2076 2.58811 10.0687 2.76175 9.97497L16.9805 2.31872C17.1398 2.23275 17.3179 2.18774 17.4989 2.18774C17.6799 2.18774 17.8581 2.23275 18.0174 2.31872L32.2361 9.97497C32.4098 10.0687 32.5548 10.2076 32.6559 10.3771C32.757 10.5465 32.8104 10.7402 32.8104 10.9375C32.8104 11.1348 32.757 11.3284 32.6559 11.4979C32.5548 11.6673 32.4098 11.8062 32.2361 11.9L18.0174 19.5562C17.8581 19.6423 17.68 19.6874 17.4989 19.6875ZM5.588 10.9375L17.4989 17.3512L29.4099 10.9375L17.4989 4.52372L5.588 10.9375Z" fill="white"/>
</g>
</svg>
