<svg width="22" height="22" viewBox="0 0 22 22" fill="none" xmlns="http://www.w3.org/2000/svg">
<g id="material-symbols:card-travel">
<path id="Vector" d="M6.41537 5.49992V3.66659C6.41537 3.16242 6.59503 2.73067 6.95437 2.37134C7.3137 2.012 7.74514 1.83264 8.2487 1.83325H13.7487C14.2529 1.83325 14.6846 2.01292 15.0439 2.37225C15.4033 2.73159 15.5826 3.16303 15.582 3.66659V5.49992H18.332C18.8362 5.49992 19.2679 5.67959 19.6273 6.03892C19.9866 6.39825 20.166 6.8297 20.1654 7.33325V17.4166C20.1654 17.9208 19.9857 18.3525 19.6264 18.7118C19.267 19.0712 18.8356 19.2505 18.332 19.2499H3.66537C3.1612 19.2499 2.72945 19.0703 2.37012 18.7109C2.01078 18.3516 1.83142 17.9201 1.83203 17.4166V7.33325C1.83203 6.82909 2.0117 6.39734 2.37103 6.038C2.73037 5.67867 3.16181 5.49931 3.66537 5.49992H6.41537ZM8.2487 5.49992H13.7487V3.66659H8.2487V5.49992ZM3.66537 15.5833H18.332V12.8333H3.66537V15.5833Z" fill="white"/>
</g>
</svg>
