<svg width="29" height="36" viewBox="0 0 29 36" fill="none" xmlns="http://www.w3.org/2000/svg">
<g id="Group 61513">
<path id="Vector" d="M17.6184 27.6273C17.6184 29.0773 16.4428 30.2529 14.9928 30.2529C13.5427 30.2529 12.3672 29.0773 12.3672 27.6273C12.3672 26.1773 13.5427 25.0017 14.9928 25.0017C16.4428 25.0017 17.6184 26.1773 17.6184 27.6273Z" fill="white"/>
<path id="Vector_2" d="M12.3752 5.74731C11.8918 5.74731 11.5 6.13916 11.5 6.62251C11.5 7.10586 11.8918 7.4977 12.3752 7.4977H17.6264C18.1096 7.4977 18.5016 7.10586 18.5016 6.62251C18.5016 6.13916 18.1096 5.74731 17.6264 5.74731H12.3752Z" fill="white"/>
<path id="Vector_3" fill-rule="evenodd" clip-rule="evenodd" d="M5.77084 34.5499C7.64299 35.5039 10.0938 35.5039 14.9953 35.5039C19.8969 35.5039 22.3477 35.5039 24.2199 34.5499C25.8666 33.711 27.2055 32.3721 28.0445 30.7253C28.9984 28.8531 28.9984 26.4024 28.9984 21.5008V14.4992C28.9984 9.59767 28.9984 7.14689 28.0445 5.27475C27.2055 3.62796 25.8666 2.28907 24.2199 1.45C22.3477 0.496094 19.8969 0.496094 14.9953 0.496094C10.0938 0.496094 7.64299 0.496094 5.77084 1.45C4.12406 2.28907 2.78517 3.62796 1.9461 5.27475C0.992188 7.14689 0.992188 9.59767 0.992188 14.4992V21.5008C0.992188 26.4024 0.992188 28.8531 1.9461 30.7253C2.78517 32.3721 4.12406 33.711 5.77084 34.5499ZM3.61777 14.4992V21.5008C3.61777 23.9949 3.61982 25.7075 3.72829 27.0352C3.83426 28.3322 4.02857 29.029 4.28551 29.5333C4.87286 30.686 5.81008 31.6233 6.96282 32.2105C7.46707 32.4675 8.16382 32.6618 9.46086 32.7679C10.7885 32.8762 12.5012 32.8783 14.9953 32.8783C17.4894 32.8783 19.202 32.8762 20.5297 32.7679C21.8267 32.6618 22.5236 32.4675 23.0279 32.2105C24.1805 31.6233 25.1178 30.686 25.7051 29.5333C25.962 29.029 26.1563 28.3322 26.2624 27.0352C26.3707 25.7075 26.3729 23.9949 26.3729 21.5008V14.4992C26.3729 12.0051 26.3707 10.2925 26.2624 8.96476C26.1563 7.66772 25.962 6.97098 25.7051 6.46673C25.1178 5.31399 24.1805 4.37676 23.0279 3.78942C22.5236 3.53248 21.8267 3.33817 20.5297 3.2322C19.202 3.12373 17.4894 3.12168 14.9953 3.12168C12.5012 3.12168 10.7885 3.12373 9.46086 3.2322C8.16382 3.33817 7.46707 3.53248 6.96282 3.78942C5.81008 4.37676 4.87286 5.31399 4.28551 6.46673C4.02857 6.97098 3.83426 7.66772 3.72829 8.96476C3.61982 10.2925 3.61777 12.0051 3.61777 14.4992Z" fill="white"/>
</g>
</svg>
