<svg width="35" height="35" viewBox="0 0 35 35" fill="none" xmlns="http://www.w3.org/2000/svg">
<g id="octoloadertwo" clip-path="url(#clip0_121_60)">
<path id="Vector" d="M26.25 19.9268V15.0732L35 11.4502V23.5498L26.25 19.9268ZM32.8125 14.6973L28.4375 16.5088V18.4912L32.8125 20.3027V14.6973ZM21.9775 9.57031L25.6006 0.854492L34.1797 9.39941L25.4297 13.0225L21.9775 9.57031ZM15.0732 8.75L11.4502 0H23.5498L19.9268 8.75H15.0732ZM9.57031 13.0225L0.820312 9.39941L9.39941 0.820312L13.0225 9.57031L9.57031 13.0225ZM8.64746 4.68262L4.68262 8.64746L9.05762 10.459L10.459 9.05762L8.64746 4.68262ZM8.75 19.9268L0 23.5498V11.4502L8.75 15.0732V19.9268ZM2.1875 14.6973V20.3027L6.5625 18.4912V16.5088L2.1875 14.6973ZM13.0225 25.3955L9.39941 34.1455L0.820312 25.6006L9.60449 21.9775L13.0225 25.3955ZM8.64746 30.3174L10.459 25.9424L9.05762 24.541L4.68262 26.3525L8.64746 30.3174ZM19.9268 26.25L23.5498 35H11.4502L15.0732 26.25H19.9268ZM20.3027 32.8125L18.4912 28.4375H16.5088L14.6973 32.8125H20.3027ZM25.4297 21.9775L34.1797 25.6006L25.6006 34.1455L21.9775 25.3955L25.4297 21.9775ZM26.3525 30.3174L30.3174 26.3525L25.9424 24.541L24.541 25.9424L26.3525 30.3174Z" fill="white"/>
</g>
<defs>
<clipPath id="clip0_121_60">
<rect width="35" height="35" fill="white"/>
</clipPath>
</defs>
</svg>
