<svg width="35" height="35" viewBox="0 0 35 35" fill="none" xmlns="http://www.w3.org/2000/svg">
<g id="textarea-t" clip-path="url(#clip0_122_74)">
<g id="Group">
<path id="Vector" d="M3.27775 5.46875C3.27775 4.59851 3.62346 3.76391 4.23881 3.14856C4.85416 2.5332 5.68876 2.1875 6.559 2.1875H28.434C29.3042 2.1875 30.1388 2.5332 30.7542 3.14856C31.3696 3.76391 31.7153 4.59851 31.7153 5.46875V13.2628C32.6554 13.5045 33.4884 14.052 34.0832 14.8191C34.678 15.5862 35.0008 16.5293 35.0008 17.5C35.0008 18.4707 34.678 19.4138 34.0832 20.1809C33.4884 20.948 32.6554 21.4955 31.7153 21.7372V29.5312C31.7153 30.4015 31.3696 31.2361 30.7542 31.8514C30.1388 32.4668 29.3042 32.8125 28.434 32.8125H6.559C5.68876 32.8125 4.85416 32.4668 4.23881 31.8514C3.62346 31.2361 3.27775 30.4015 3.27775 29.5312V21.7372C2.33765 21.4955 1.50462 20.948 0.909811 20.1809C0.315001 19.4138 -0.0078125 18.4707 -0.0078125 17.5C-0.0078125 16.5293 0.315001 15.5862 0.909811 14.8191C1.50462 14.052 2.33765 13.5045 3.27775 13.2628V5.46875ZM5.46525 13.2628C6.40536 13.5045 7.23839 14.052 7.8332 14.8191C8.42801 15.5862 8.75082 16.5293 8.75082 17.5C8.75082 18.4707 8.42801 19.4138 7.8332 20.1809C7.23839 20.948 6.40536 21.4955 5.46525 21.7372V29.5312C5.46525 29.8213 5.58049 30.0995 5.78561 30.3046C5.99072 30.5098 6.26892 30.625 6.559 30.625H28.434C28.7241 30.625 29.0023 30.5098 29.2074 30.3046C29.4125 30.0995 29.5278 29.8213 29.5278 29.5312V21.7372C28.5876 21.4955 27.7546 20.948 27.1598 20.1809C26.565 19.4138 26.2422 18.4707 26.2422 17.5C26.2422 16.5293 26.565 15.5862 27.1598 14.8191C27.7546 14.052 28.5876 13.5045 29.5278 13.2628V5.46875C29.5278 5.17867 29.4125 4.90047 29.2074 4.69535C29.0023 4.49023 28.7241 4.375 28.434 4.375H6.559C6.26892 4.375 5.99072 4.49023 5.78561 4.69535C5.58049 4.90047 5.46525 5.17867 5.46525 5.46875V13.2628ZM4.3715 15.3125C3.79134 15.3125 3.23494 15.543 2.82471 15.9532C2.41447 16.3634 2.184 16.9198 2.184 17.5C2.184 18.0802 2.41447 18.6366 2.82471 19.0468C3.23494 19.457 3.79134 19.6875 4.3715 19.6875C4.95166 19.6875 5.50806 19.457 5.9183 19.0468C6.32854 18.6366 6.559 18.0802 6.559 17.5C6.559 16.9198 6.32854 16.3634 5.9183 15.9532C5.50806 15.543 4.95166 15.3125 4.3715 15.3125ZM30.6215 15.3125C30.0413 15.3125 29.4849 15.543 29.0747 15.9532C28.6645 16.3634 28.434 16.9198 28.434 17.5C28.434 18.0802 28.6645 18.6366 29.0747 19.0468C29.4849 19.457 30.0413 19.6875 30.6215 19.6875C31.2017 19.6875 31.7581 19.457 32.1683 19.0468C32.5785 18.6366 32.809 18.0802 32.809 17.5C32.809 16.9198 32.5785 16.3634 32.1683 15.9532C31.7581 15.543 31.2017 15.3125 30.6215 15.3125Z" fill="white"/>
<path id="Vector_2" d="M25.0119 8.75H9.98812L9.84375 13.1119H10.6881C11.1475 10.3731 12.0269 9.94875 15.4416 9.84156L16.1919 9.8175V23.6928C16.1919 24.8675 15.9381 25.1475 13.8972 25.3291V26.25H21.1028V25.3291C19.0509 25.1475 18.7972 24.8697 18.7972 23.6928V9.8175L19.5584 9.83938C22.9709 9.94875 23.8525 10.3731 24.3119 13.1119H25.1562L25.0119 8.75Z" fill="white"/>
</g>
</g>
<defs>
<clipPath id="clip0_122_74">
<rect width="35" height="35" fill="white"/>
</clipPath>
</defs>
</svg>
