<svg width="35" height="35" viewBox="0 0 35 35" fill="none" xmlns="http://www.w3.org/2000/svg">
<g id="ui-checks-grid" clip-path="url(#clip0_122_67)">
<g id="Group">
<path id="Vector" d="M4.375 21.875H10.9375C11.5177 21.875 12.0741 22.1055 12.4843 22.5157C12.8945 22.9259 13.125 23.4823 13.125 24.0625V30.625C13.125 31.2052 12.8945 31.7616 12.4843 32.1718C12.0741 32.582 11.5177 32.8125 10.9375 32.8125H4.375C3.79484 32.8125 3.23844 32.582 2.8282 32.1718C2.41797 31.7616 2.1875 31.2052 2.1875 30.625V24.0625C2.1875 23.4823 2.41797 22.9259 2.8282 22.5157C3.23844 22.1055 3.79484 21.875 4.375 21.875ZM24.0625 2.1875H30.625C31.2052 2.1875 31.7616 2.41797 32.1718 2.8282C32.582 3.23844 32.8125 3.79484 32.8125 4.375V10.9375C32.8125 11.5177 32.582 12.0741 32.1718 12.4843C31.7616 12.8945 31.2052 13.125 30.625 13.125H24.0625C23.4823 13.125 22.9259 12.8945 22.5157 12.4843C22.1055 12.0741 21.875 11.5177 21.875 10.9375V4.375C21.875 3.79484 22.1055 3.23844 22.5157 2.8282C22.9259 2.41797 23.4823 2.1875 24.0625 2.1875ZM24.0625 21.875C23.4823 21.875 22.9259 22.1055 22.5157 22.5157C22.1055 22.9259 21.875 23.4823 21.875 24.0625V30.625C21.875 31.2052 22.1055 31.7616 22.5157 32.1718C22.9259 32.582 23.4823 32.8125 24.0625 32.8125H30.625C31.2052 32.8125 31.7616 32.582 32.1718 32.1718C32.582 31.7616 32.8125 31.2052 32.8125 30.625V24.0625C32.8125 23.4823 32.582 22.9259 32.1718 22.5157C31.7616 22.1055 31.2052 21.875 30.625 21.875H24.0625ZM24.0625 0C22.9022 0 21.7894 0.460936 20.9689 1.28141C20.1484 2.10188 19.6875 3.21468 19.6875 4.375V10.9375C19.6875 12.0978 20.1484 13.2106 20.9689 14.0311C21.7894 14.8516 22.9022 15.3125 24.0625 15.3125H30.625C31.7853 15.3125 32.8981 14.8516 33.7186 14.0311C34.5391 13.2106 35 12.0978 35 10.9375V4.375C35 3.21468 34.5391 2.10188 33.7186 1.28141C32.8981 0.460936 31.7853 0 30.625 0L24.0625 0ZM4.375 19.6875C3.21468 19.6875 2.10188 20.1484 1.28141 20.9689C0.460936 21.7894 0 22.9022 0 24.0625L0 30.625C0 31.7853 0.460936 32.8981 1.28141 33.7186C2.10188 34.5391 3.21468 35 4.375 35H10.9375C12.0978 35 13.2106 34.5391 14.0311 33.7186C14.8516 32.8981 15.3125 31.7853 15.3125 30.625V24.0625C15.3125 22.9022 14.8516 21.7894 14.0311 20.9689C13.2106 20.1484 12.0978 19.6875 10.9375 19.6875H4.375ZM19.6875 24.0625C19.6875 22.9022 20.1484 21.7894 20.9689 20.9689C21.7894 20.1484 22.9022 19.6875 24.0625 19.6875H30.625C31.7853 19.6875 32.8981 20.1484 33.7186 20.9689C34.5391 21.7894 35 22.9022 35 24.0625V30.625C35 31.7853 34.5391 32.8981 33.7186 33.7186C32.8981 34.5391 31.7853 35 30.625 35H24.0625C22.9022 35 21.7894 34.5391 20.9689 33.7186C20.1484 32.8981 19.6875 31.7853 19.6875 30.625V24.0625ZM0 4.375C0 3.21468 0.460936 2.10188 1.28141 1.28141C2.10188 0.460936 3.21468 0 4.375 0L10.9375 0C12.0978 0 13.2106 0.460936 14.0311 1.28141C14.8516 2.10188 15.3125 3.21468 15.3125 4.375V10.9375C15.3125 12.0978 14.8516 13.2106 14.0311 14.0311C13.2106 14.8516 12.0978 15.3125 10.9375 15.3125H4.375C3.21468 15.3125 2.10188 14.8516 1.28141 14.0311C0.460936 13.2106 0 12.0978 0 10.9375V4.375ZM11.7119 6.24312C11.8136 6.14143 11.8942 6.02071 11.9493 5.88784C12.0043 5.75497 12.0326 5.61256 12.0326 5.46875C12.0326 5.32494 12.0043 5.18253 11.9493 5.04966C11.8942 4.91679 11.8136 4.79607 11.7119 4.69438C11.6102 4.59268 11.4895 4.51202 11.3566 4.45698C11.2237 4.40195 11.0813 4.37362 10.9375 4.37362C10.7937 4.37362 10.6513 4.40195 10.5184 4.45698C10.3855 4.51202 10.2648 4.59268 10.1631 4.69438L6.5625 8.29719L5.14937 6.88188C5.04768 6.78018 4.92696 6.69952 4.79409 6.64448C4.66122 6.58945 4.51881 6.56112 4.375 6.56112C4.23119 6.56112 4.08878 6.58945 3.95591 6.64448C3.82304 6.69952 3.70232 6.78018 3.60063 6.88188C3.49893 6.98357 3.41827 7.10429 3.36323 7.23716C3.30819 7.37003 3.27987 7.51244 3.27987 7.65625C3.27987 7.80006 3.30819 7.94247 3.36323 8.07534C3.41827 8.20821 3.49893 8.32893 3.60063 8.43062L5.78813 10.6181C5.88972 10.72 6.01042 10.8008 6.1433 10.8559C6.27618 10.9111 6.41863 10.9395 6.5625 10.9395C6.70637 10.9395 6.84882 10.9111 6.9817 10.8559C7.11458 10.8008 7.23528 10.72 7.33687 10.6181L11.7119 6.24312Z" fill="white"/>
</g>
</g>
<defs>
<clipPath id="clip0_122_67">
<rect width="35" height="35" fill="white"/>
</clipPath>
</defs>
</svg>
